<svg width="24" height="24" viewBox="0 0 24 24" fill="none" xmlns="http://www.w3.org/2000/svg">
<g clip-path="url(#clip0_1882_134)">
<path d="M12.0002 14.4999C13.3809 14.4999 14.5002 13.3806 14.5002 11.9999C14.5002 10.6192 13.3809 9.49992 12.0002 9.49992C10.6195 9.49992 9.50016 10.6192 9.50016 11.9999C9.50016 13.3806 10.6195 14.4999 12.0002 14.4999Z" stroke="#5D6679" stroke-width="1.2" stroke-linecap="round" stroke-linejoin="round"/>
<path d="M18.1668 14.4999C18.0559 14.7513 18.0228 15.0301 18.0718 15.3004C18.1208 15.5707 18.2497 15.8202 18.4418 16.0166L18.4918 16.0666C18.6468 16.2214 18.7697 16.4052 18.8536 16.6075C18.9375 16.8098 18.9806 17.0267 18.9806 17.2458C18.9806 17.4648 18.9375 17.6817 18.8536 17.884C18.7697 18.0863 18.6468 18.2701 18.4918 18.4249C18.337 18.5799 18.1532 18.7028 17.9509 18.7867C17.7486 18.8706 17.5317 18.9137 17.3127 18.9137C17.0936 18.9137 16.8768 18.8706 16.6744 18.7867C16.4721 18.7028 16.2883 18.5799 16.1335 18.4249L16.0835 18.3749C15.8871 18.1828 15.6376 18.0539 15.3673 18.0049C15.097 17.9559 14.8182 17.989 14.5668 18.0999C14.3204 18.2056 14.1101 18.381 13.9621 18.6045C13.814 18.8281 13.7346 19.0901 13.7335 19.3583V19.4999C13.7335 19.9419 13.5579 20.3659 13.2453 20.6784C12.9328 20.991 12.5089 21.1666 12.0668 21.1666C11.6248 21.1666 11.2009 20.991 10.8883 20.6784C10.5758 20.3659 10.4002 19.9419 10.4002 19.4999V19.4249C10.3937 19.1491 10.3044 18.8816 10.1439 18.6572C9.98341 18.4328 9.75911 18.2618 9.50016 18.1666C9.24882 18.0557 8.97 18.0226 8.69967 18.0716C8.42934 18.1206 8.17989 18.2495 7.9835 18.4416L7.9335 18.4916C7.77871 18.6465 7.59489 18.7695 7.39256 18.8533C7.19023 18.9372 6.97335 18.9804 6.75433 18.9804C6.5353 18.9804 6.31843 18.9372 6.1161 18.8533C5.91377 18.7695 5.72995 18.6465 5.57516 18.4916C5.4202 18.3368 5.29727 18.153 5.2134 17.9507C5.12952 17.7483 5.08635 17.5314 5.08635 17.3124C5.08635 17.0934 5.12952 16.8765 5.2134 16.6742C5.29727 16.4719 5.4202 16.288 5.57516 16.1332L5.62516 16.0833C5.81728 15.8869 5.94615 15.6374 5.99517 15.3671C6.04418 15.0967 6.01109 14.8179 5.90016 14.5666C5.79453 14.3201 5.61913 14.1099 5.39555 13.9618C5.17198 13.8138 4.90998 13.7343 4.64183 13.7333H4.50016C4.05814 13.7333 3.63421 13.5577 3.32165 13.2451C3.00909 12.9325 2.8335 12.5086 2.8335 12.0666C2.8335 11.6246 3.00909 11.2006 3.32165 10.8881C3.63421 10.5755 4.05814 10.3999 4.50016 10.3999H4.57516C4.85099 10.3935 5.1185 10.3042 5.34291 10.1437C5.56732 9.98317 5.73826 9.75886 5.8335 9.49992C5.94443 9.24857 5.97752 8.96976 5.9285 8.69943C5.87948 8.4291 5.75061 8.17965 5.5585 7.98325L5.5085 7.93325C5.35354 7.77846 5.2306 7.59465 5.14673 7.39232C5.06286 7.18999 5.01968 6.97311 5.01968 6.75408C5.01968 6.53506 5.06286 6.31818 5.14673 6.11585C5.2306 5.91352 5.35354 5.72971 5.5085 5.57492C5.66328 5.41996 5.8471 5.29703 6.04943 5.21315C6.25176 5.12928 6.46864 5.08611 6.68766 5.08611C6.90669 5.08611 7.12357 5.12928 7.3259 5.21315C7.52823 5.29703 7.71204 5.41996 7.86683 5.57492L7.91683 5.62492C8.11323 5.81703 8.36268 5.94591 8.633 5.99492C8.90333 6.04394 9.18215 6.01085 9.4335 5.89992H9.50016C9.74664 5.79428 9.95684 5.61888 10.1049 5.39531C10.253 5.17173 10.3324 4.90974 10.3335 4.64159V4.49992C10.3335 4.05789 10.5091 3.63397 10.8217 3.32141C11.1342 3.00885 11.5581 2.83325 12.0002 2.83325C12.4422 2.83325 12.8661 3.00885 13.1787 3.32141C13.4912 3.63397 13.6668 4.05789 13.6668 4.49992V4.57492C13.6679 4.84307 13.7474 5.10506 13.8954 5.32864C14.0435 5.55221 14.2537 5.72762 14.5002 5.83325C14.7515 5.94418 15.0303 5.97727 15.3007 5.92826C15.571 5.87924 15.8204 5.75037 16.0168 5.55825L16.0668 5.50825C16.2216 5.35329 16.4054 5.23036 16.6078 5.14649C16.8101 5.06261 17.027 5.01944 17.246 5.01944C17.465 5.01944 17.6819 5.06261 17.8842 5.14649C18.0866 5.23036 18.2704 5.35329 18.4252 5.50825C18.5801 5.66304 18.7031 5.84685 18.7869 6.04918C18.8708 6.25151 18.914 6.46839 18.914 6.68742C18.914 6.90644 18.8708 7.12332 18.7869 7.32565C18.7031 7.52798 18.5801 7.7118 18.4252 7.86658L18.3752 7.91658C18.183 8.11298 18.0542 8.36243 18.0052 8.63276C17.9561 8.90309 17.9892 9.1819 18.1002 9.43325V9.49992C18.2058 9.74639 18.3812 9.9566 18.6048 10.1047C18.8283 10.2527 19.0903 10.3322 19.3585 10.3333H19.5002C19.9422 10.3333 20.3661 10.5088 20.6787 10.8214C20.9912 11.134 21.1668 11.5579 21.1668 11.9999C21.1668 12.4419 20.9912 12.8659 20.6787 13.1784C20.3661 13.491 19.9422 13.6666 19.5002 13.6666H19.4252C19.157 13.6677 18.895 13.7471 18.6714 13.8952C18.4479 14.0432 18.2725 14.2534 18.1668 14.4999Z" stroke="#5D6679" stroke-width="1.2" stroke-linecap="round" stroke-linejoin="round"/>
</g>
<defs>
<clipPath id="clip0_1882_134">
<rect width="20" height="20" fill="white" transform="translate(2 2)"/>
</clipPath>
</defs>
</svg>
